# xmcd
#
# Track frame offsets: 
#        150
#        11490
#        32325
#        45264
#        65260
#        75491
#        99024
#        119671
#        150098
#        179207
#        192458
#        209782
#        228552
#        253194
#
# Disc length: 3839 seconds
#
# Revision: 0
# Processed by: cddbd v1.5.2PL0 Copyright (c) Steve Scherf et al.
# Submitted via: ExactAudioCopy v1.0b3
#
DISCID=b10efd0e
DTITLE=B.B. King - the jazz channel
DYEAR=1900
DGENRE=
TTITLE0=1. B.B. King BET on Jazz - Two I Shoot Blues 1:06
TTITLE1=2. B.B. King BET on Jazz - Let the Good Times Roll 2:29
TTITLE2=3. B.B. King BET on Jazz - I'll Survive 4:32
TTITLE3=4. B.B. King BET on Jazz - Bad Case of Love 6:44
TTITLE4=5. B.B. King BET on Jazz - Peace of Mind 6:26
TTITLE5=6. B.B. King BET on Jazz - Caldonia 2:54
TTITLE6=7. B.B. King BET on Jazz - Blues Boys Tune 3:49
TTITLE7=8. B.B. King BET on Jazz - Early in the Morning 4:39
TTITLE8=9. B.B. King BET on Jazz - Just Like a Woman 4:53
TTITLE9=10. B.B. King BET on Jazz - I'm Gonna Move to the Outskirts of
TTITLE9=Town 7:43
TTITLE10=11. B.B. King BET on Jazz - The Thrill is Gone 4:35
TTITLE11=12. B.B. King BET on Jazz - I Know 2:49
TTITLE12=13. B.B. King BET on Jazz - Don't Go No Further (You Need Mea
TTITLE12=t) 5:14
TTITLE13=14. B.B. King BET on Jazz - Please Accept My Love 4:25
EXTD=
EXTT0=
EXTT1=
EXTT2=
EXTT3=
EXTT4=
EXTT5=
EXTT6=
EXTT7=
EXTT8=
EXTT9=
EXTT10=
EXTT11=
EXTT12=
EXTT13=
PLAYORDER=
